<mxfile host="app.diagrams.net" agent="Mozilla/5.0 (X11; Linux x86_64) AppleWebKit/537.36 (KHTML, like Gecko) Chrome/131.0.0.0 Safari/537.36" version="26.0.5">
  <diagram name="Page-1" id="2ODvLv07vlqCRfQNGZf7">
    <mxGraphModel dx="1434" dy="792" grid="1" gridSize="10" guides="1" tooltips="1" connect="1" arrows="1" fold="1" page="1" pageScale="1" pageWidth="850" pageHeight="1100" math="0" shadow="0">
      <root>
        <mxCell id="0" />
        <mxCell id="1" parent="0" />
        <mxCell id="FuamCne6GnRuwzx6JCPL-11" value="" style="edgeStyle=orthogonalEdgeStyle;rounded=0;orthogonalLoop=1;jettySize=auto;html=1;" edge="1" parent="1" source="FuamCne6GnRuwzx6JCPL-6" target="FuamCne6GnRuwzx6JCPL-10">
          <mxGeometry relative="1" as="geometry" />
        </mxCell>
        <mxCell id="FuamCne6GnRuwzx6JCPL-6" value="Data&amp;nbsp;" style="rounded=0;whiteSpace=wrap;html=1;" vertex="1" parent="1">
          <mxGeometry x="140" y="90" width="120" height="60" as="geometry" />
        </mxCell>
        <mxCell id="FuamCne6GnRuwzx6JCPL-13" value="" style="edgeStyle=orthogonalEdgeStyle;rounded=0;orthogonalLoop=1;jettySize=auto;html=1;" edge="1" parent="1" source="FuamCne6GnRuwzx6JCPL-10" target="FuamCne6GnRuwzx6JCPL-12">
          <mxGeometry relative="1" as="geometry" />
        </mxCell>
        <mxCell id="FuamCne6GnRuwzx6JCPL-10" value="(1)&amp;nbsp;&lt;div&gt;Preprocessing&lt;/div&gt;" style="shape=parallelogram;perimeter=parallelogramPerimeter;whiteSpace=wrap;html=1;fixedSize=1;rounded=0;" vertex="1" parent="1">
          <mxGeometry x="340" y="90" width="120" height="60" as="geometry" />
        </mxCell>
        <mxCell id="FuamCne6GnRuwzx6JCPL-15" value="" style="edgeStyle=orthogonalEdgeStyle;rounded=0;orthogonalLoop=1;jettySize=auto;html=1;" edge="1" parent="1" source="FuamCne6GnRuwzx6JCPL-12" target="FuamCne6GnRuwzx6JCPL-14">
          <mxGeometry relative="1" as="geometry" />
        </mxCell>
        <mxCell id="FuamCne6GnRuwzx6JCPL-12" value="(2)&lt;div&gt;Model&lt;/div&gt;" style="shape=parallelogram;perimeter=parallelogramPerimeter;whiteSpace=wrap;html=1;fixedSize=1;rounded=0;" vertex="1" parent="1">
          <mxGeometry x="540" y="90" width="120" height="60" as="geometry" />
        </mxCell>
        <mxCell id="FuamCne6GnRuwzx6JCPL-17" value="" style="edgeStyle=orthogonalEdgeStyle;rounded=0;orthogonalLoop=1;jettySize=auto;html=1;" edge="1" parent="1" source="FuamCne6GnRuwzx6JCPL-14" target="FuamCne6GnRuwzx6JCPL-16">
          <mxGeometry relative="1" as="geometry" />
        </mxCell>
        <mxCell id="FuamCne6GnRuwzx6JCPL-14" value="(3)&lt;div&gt;Webesite&lt;/div&gt;" style="shape=parallelogram;perimeter=parallelogramPerimeter;whiteSpace=wrap;html=1;fixedSize=1;rounded=0;" vertex="1" parent="1">
          <mxGeometry x="540" y="230" width="120" height="60" as="geometry" />
        </mxCell>
        <mxCell id="FuamCne6GnRuwzx6JCPL-16" value="(4)&lt;div&gt;Deploy&lt;/div&gt;" style="shape=parallelogram;perimeter=parallelogramPerimeter;whiteSpace=wrap;html=1;fixedSize=1;rounded=0;" vertex="1" parent="1">
          <mxGeometry x="340" y="230" width="120" height="60" as="geometry" />
        </mxCell>
      </root>
    </mxGraphModel>
  </diagram>
</mxfile>
